<?xml version="1.0" encoding="UTF-8"?>
<svg id="Layer_1" data-name="Layer 1" xmlns="http://www.w3.org/2000/svg" baseProfile="tiny" version="1.2" viewBox="0 0 677 151">
  <path d="M40.8,31.6l-8.4-1.1c-2.4-.3-3.9-1.1-4.8-1.9-1.1-1-1.4-2.1-1.4-2.9,0-2.8,2.4-5.9,8.4-5.9s8.8-.3,13.2,3.7l10.8-9.8c-6-5.4-13.5-7.6-23.5-7.6-15.8,0-25.4,8.4-25.4,20s1.6,9.7,4.8,12.7c3.1,2.9,7.8,4.8,14,5.6l8.4,1.1c2.2.3,3.7.9,4.6,1.7,1,1,1.4,2.2,1.4,3.7,0,3.6-3.2,5.7-10,5.7s-11.9-1.2-15.5-4.4l-10.9,9.9c7,6.6,15.7,8.4,26.4,8.4s26.9-7,26.9-19.9-1.5-10.6-5.2-13.9c-2.9-2.7-7.4-4.4-13.7-5.2Z" fill="#231f20" stroke-width="0"/>
  <path d="M124.4,13.4c-5.1-4.6-10.9-7.1-19.4-7.1s-14.4,2.5-19.4,7.1c-7.3,6.7-7,15.5-7,25.1s-.3,18.4,7,25.1c5.1,4.6,10.9,7.1,19.4,7.1s14.4-2.5,19.4-7.1c7.3-6.7,7-15.5,7-25.1s.3-18.4-7-25.1ZM111.8,53.9c-1.3,1.5-3.7,2.8-6.8,2.8s-5.6-1.3-6.8-2.8c-1.6-1.9-2.5-3.9-2.5-15.5s1-13.7,2.5-15.5c1.3-1.5,3.7-2.8,6.8-2.8s5.6,1.2,6.8,2.8c1.6,1.9,2.5,4,2.5,15.5s-1,13.6-2.5,15.5Z" fill="#231f20" stroke-width="0"/>
  <polygon points="151.6 30.4 167.6 19.9 167.6 6.9 151.6 6.9 151.6 30.4" fill="#231f20" stroke-width="0"/>
  <polygon points="227.2 38.7 204.9 6.9 190 6.9 190 70.1 207.1 70.1 207.1 38.3 229.4 70.1 244.3 70.1 244.3 6.9 227.2 6.9 227.2 38.7" fill="#231f20" stroke-width="0"/>
  <path d="M307.1,70.1h17.9l-25.3-63.3h-13.2l-25.3,63.3h17.9l3.4-9.4h21.4l3.2,9.4ZM287.2,47.7l6.3-16.9,5.9,16.9h-12.1Z" fill="#231f20" stroke-width="0"/>
  <polygon points="366 70.1 366 20.7 383.1 20.7 383.1 6.9 331.8 6.9 331.8 20.7 348.9 20.7 348.9 70.1 366 70.1" fill="#231f20" stroke-width="0"/>
  <path d="M428,70.6c14.5,0,26.5-8.9,26.5-22.7V6.9h-17.1v40.7c0,5.9-3.7,9.2-9.4,9.2s-9.2-3.4-9.2-9.2V6.9h-17.1v41c0,13.9,11.8,22.7,26.3,22.7Z" fill="#231f20" stroke-width="0"/>
  <path d="M528.4,27.2c0-10.4-8.3-20.3-23.7-20.3h-27.6v63.3h17.1v-23.5h5.8l12.3,23.5h19.8l-15.1-26.4c5.5-2.5,11.3-7.9,11.3-16.5ZM503.9,33.6h-9.7v-12.8h9.7c4.7,0,7.4,3.1,7.4,6.4s-2.7,6.4-7.4,6.4Z" fill="#231f20" stroke-width="0"/>
  <path d="M568.9,6.9l-25.3,63.3h17.9l3.4-9.4h21.4l3.2,9.4h17.9l-25.3-63.3h-13.2ZM569.7,47.7l6.3-16.9,5.9,16.9h-12.1Z" fill="#231f20" stroke-width="0"/>
  <polygon points="641.3 56.3 641.3 6.9 624.2 6.9 624.2 70.1 670.6 70.1 670.6 56.3 641.3 56.3" fill="#231f20" stroke-width="0"/>
  <path d="M147.7,100.5v4.4h-3.6v4.4h3.6v23.9h6.4v-23.9h6.3v-4.4h-6.3v-4.1c0-2.1,1.1-3.3,3.5-3.3h2.8v-4.9h-4c-5.9,0-8.7,3.9-8.7,8Z" fill="#231f20" stroke-width="0"/>
  <path d="M181,104.1c-4.3,0-7.4,1.5-9.4,3.4-3,2.8-3.8,6.5-3.8,11.3s.8,8.5,3.8,11.4c2.1,1.9,5.1,3.4,9.4,3.4s7.4-1.5,9.5-3.4c3-2.8,3.8-6.5,3.8-11.4s-.8-8.5-3.8-11.3c-2.1-1.9-5.2-3.4-9.5-3.4ZM185.7,126.7c-1.2,1.1-2.8,1.7-4.7,1.7s-3.4-.6-4.6-1.7c-1.9-1.8-2.2-4.8-2.2-7.9s.2-6.1,2.2-7.9c1.2-1.1,2.7-1.6,4.6-1.6s3.5.6,4.7,1.6c1.9,1.8,2.2,4.8,2.2,7.9s-.2,6.1-2.2,7.9Z" fill="#231f20" stroke-width="0"/>
  <path d="M212.3,107.6v-3.1h-6.3v28.8h6.4v-17.5c0-4,2.9-6.5,6.3-6.5s3.3.6,4.8,1.9l4.8-4.4c-2.2-2-4.5-2.7-7.6-2.7s-6.8,1.4-8.4,3.5Z" fill="#231f20" stroke-width="0"/>
  <path d="M264.5,124.7l-7.6-20.3h-6.8l11.1,27.4-1.7,4.5c-.9,2.3-1.9,3.1-4.6,3.1h-1.6v5.2h2.6c2.4,0,4.8-.5,6.5-2.1.9-.8,1.7-2,2.3-3.6l14-34.5h-6.8l-7.4,20.3Z" fill="#231f20" stroke-width="0"/>
  <path d="M298.2,104.1c-4.3,0-7.4,1.5-9.4,3.4-3,2.8-3.8,6.5-3.8,11.3s.8,8.5,3.8,11.4c2.1,1.9,5.1,3.4,9.4,3.4s7.4-1.5,9.5-3.4c3-2.8,3.7-6.5,3.7-11.4s-.8-8.5-3.7-11.3c-2.1-1.9-5.2-3.4-9.5-3.4ZM302.9,126.7c-1.2,1.1-2.8,1.7-4.7,1.7s-3.4-.6-4.6-1.7c-1.9-1.8-2.2-4.8-2.2-7.9s.2-6.1,2.2-7.9c1.2-1.1,2.8-1.6,4.6-1.6s3.5.6,4.7,1.6c1.9,1.8,2.2,4.8,2.2,7.9s-.3,6.1-2.2,7.9Z" fill="#231f20" stroke-width="0"/>
  <path d="M342.2,122c0,4.4-3,6.4-6.6,6.4s-6.4-1.9-6.4-6.4v-17.6h-6.4v18.4c0,3.2.8,6,3.2,8.1,1.9,1.6,4.6,2.6,7.8,2.6s6.3-1.1,8.4-3.2v2.9h6.3v-28.8h-6.4v17.6Z" fill="#231f20" stroke-width="0"/>
  <path d="M368,107.6v-3.1h-6.2v28.8h6.4v-17.5c0-4,2.9-6.5,6.3-6.5s3.3.6,4.8,1.9l4.8-4.4c-2.2-2-4.5-2.7-7.6-2.7s-6.8,1.4-8.4,3.5Z" fill="#231f20" stroke-width="0"/>
  <path d="M424.5,116.3l-5-.4c-3.4-.3-4.4-1.6-4.4-3.3s1.9-3.7,5.7-3.7,5.8.6,7.8,2.1l4-3.7c-2.9-2.3-7-3.2-11.8-3.2s-11.9,3.2-11.9,8.8,3.4,7.5,9.4,8l5.1.4c3.1.2,4.3,1.5,4.3,3.4s-3.1,4-6.9,4-6.6-.6-9.1-3l-4.2,3.8c3.7,3.3,8.1,4.1,13.3,4.1,7.6,0,13.2-3.1,13.2-9.1s-3.5-7.7-9.4-8.1Z" fill="#231f20" stroke-width="0"/>
  <polygon points="471.2 104.5 463.5 104.5 451.1 117.7 451.1 92.8 444.8 92.8 444.8 133.3 451.1 133.3 451.1 124.8 455.8 120 464.7 133.3 472.6 133.3 460.2 115.8 471.2 104.5" fill="#231f20" stroke-width="0"/>
  <rect x="482" y="92.6" width="6.8" height="6.1" fill="#231f20" stroke-width="0"/>
  <rect x="482.1" y="104.5" width="6.4" height="28.8" fill="#231f20" stroke-width="0"/>
  <path d="M524.3,106.7c-1.9-1.6-4.6-2.6-7.8-2.6s-6.2,1.1-8.4,3.2v-2.9h-6.3v28.8h6.4v-17.6c0-4.4,3-6.4,6.6-6.4s6.4,1.9,6.4,6.4v17.6h6.4v-18.4c0-3.2-.8-6-3.2-8.1Z" fill="#231f20" stroke-width="0"/>
</svg>